<?xml version="1.0" encoding="UTF-8"?>
<svg xmlns="http://www.w3.org/2000/svg" version="1.1" viewBox="0 0 268 268" style="shape-rendering:geometricPrecision; text-rendering:geometricPrecision; image-rendering:optimizeQuality; fill-rule:evenodd; clip-rule:evenodd" xmlns:xlink="http://www.w3.org/1999/xlink">
    <g>
        <path fill="#4a148c" d="M 110.5,-0.5 C 111.5,-0.5 112.5,-0.5 113.5,-0.5C 117.431,7.19029 121.764,14.6903 126.5,22C 134.085,22.537 141.585,23.3703 149,24.5C 154.432,16.6246 160.099,8.95791 166,1.5C 169.808,2.53212 173.475,3.86546 177,5.5C 177.459,14.5156 178.126,23.5156 179,32.5C 185.249,36.0408 191.416,39.7074 197.5,43.5C 205.605,39.364 213.772,35.364 222,31.5C 225.327,33.9949 228.493,36.6615 231.5,39.5C 228,47.1667 224.5,54.8333 221,62.5C 220.365,64.6354 220.699,66.6354 222,68.5C 225.429,72.7718 228.262,77.4385 230.5,82.5C 240.149,83.3321 249.816,83.8321 259.5,84C 260.927,87.4442 262.26,90.9442 263.5,94.5C 256.291,101.206 248.625,107.372 240.5,113C 241.875,120.065 242.875,127.232 243.5,134.5C 251.527,138.846 259.527,143.179 267.5,147.5C 267.5,149.5 267.5,151.5 267.5,153.5C 266.992,155.842 265.992,158.009 264.5,160C 255.543,161.825 246.543,163.325 237.5,164.5C 235.742,171.353 233.409,178.02 230.5,184.5C 235.464,192.476 240.464,200.476 245.5,208.5C 243.5,211.167 241.5,213.833 239.5,216.5C 237.56,217.528 235.56,217.528 233.5,216.5C 226.161,214.165 218.828,211.831 211.5,209.5C 206.44,214.73 200.94,219.396 195,223.5C 195.462,231.993 196.295,240.493 197.5,249C 197.415,250.107 197.081,251.107 196.5,252C 193.209,253.597 189.875,255.097 186.5,256.5C 179.771,249.767 172.771,243.433 165.5,237.5C 158.902,239.316 152.235,240.816 145.5,242C 141.871,250.388 138.537,258.888 135.5,267.5C 134.5,267.5 133.5,267.5 132.5,267.5C 129.375,266.521 126.042,266.187 122.5,266.5C 120.133,257.9 117.466,249.4 114.5,241C 107.06,239.63 99.8932,237.463 93,234.5C 86.8333,240 80.6667,245.5 74.5,251C 70.1303,251.072 66.297,249.572 63,246.5C 63.6772,237.444 64.6772,228.444 66,219.5C 60.2734,215.228 55.1067,210.395 50.5,205C 42.0957,205.78 33.7624,207.28 25.5,209.5C 23.9707,209.471 22.804,208.804 22,207.5C 20.7003,204.705 19.2003,202.039 17.5,199.5C 23.1407,192.707 28.1407,185.541 32.5,178C 30.1362,171.241 27.9695,164.408 26,157.5C 17.9922,154.609 9.82553,152.109 1.5,150C 0.876708,147.393 0.210041,144.893 -0.5,142.5C -0.5,140.833 -0.5,139.167 -0.5,137.5C 7.38271,133.976 15.216,130.309 23,126.5C 24.2886,118.486 25.2886,110.486 26,102.5C 20.0315,97.5328 14.3648,92.1995 9,86.5C 8.33333,85.1667 8.33333,83.8333 9,82.5C 10.2754,80.2827 11.2754,77.9494 12,75.5C 21.3231,75.55 30.6564,75.2167 40,74.5C 43.2306,68.601 47.2306,63.2676 52,58.5C 50.2404,50.0452 47.7404,41.7119 44.5,33.5C 44.6667,32.8333 44.8333,32.1667 45,31.5C 47.7953,29.7068 50.2953,27.5402 52.5,25C 60.7702,28.713 68.7702,33.213 76.5,38.5C 82.7721,34.5309 89.4388,31.3642 96.5,29C 98.5282,19.9699 99.8615,10.8032 100.5,1.5C 104.078,1.45123 107.411,0.784567 110.5,-0.5 Z M 129.5,60.5 C 151.076,60.2977 169.41,67.7977 184.5,83C 166.751,83.8164 149.584,87.3164 133,93.5C 125.352,83.3523 116.519,74.3523 106.5,66.5C 113.998,63.3767 121.664,61.3767 129.5,60.5 Z M 94.5,71.5 C 105.191,78.3512 114.525,86.8512 122.5,97C 115.181,101.574 107.681,105.741 100,109.5C 89.2326,107.122 78.3993,105.122 67.5,103.5C 73.6359,90.3683 82.6359,79.7017 94.5,71.5 Z M 175.5,93.5 C 181.537,93.1707 187.537,93.5041 193.5,94.5C 198.94,102.365 201.774,111.032 202,120.5C 198.333,125.167 194.667,129.833 191,134.5C 187.583,138.424 183.75,141.757 179.5,144.5C 170.893,139.737 162.393,134.737 154,129.5C 150.073,119.812 145.24,110.645 139.5,102C 151.338,97.9368 163.338,95.1034 175.5,93.5 Z M 127.5,106.5 C 128.675,106.281 129.675,106.614 130.5,107.5C 134.03,112.532 137.364,117.699 140.5,123C 132.163,120.161 123.83,116.994 115.5,113.5C 119.563,111.14 123.563,108.807 127.5,106.5 Z M 63.5,114.5 C 72.6445,114.601 81.6445,115.768 90.5,118C 80,125.833 70.8333,135 63,145.5C 61.023,135.164 61.1896,124.83 63.5,114.5 Z M 101.5,121.5 C 116.783,125.04 131.45,130.373 145.5,137.5C 149.312,145.726 151.145,154.392 151,163.5C 125.174,174.456 98.6738,176.29 71.5,169C 68.9703,165.461 67.4703,161.627 67,157.5C 76.9921,144.009 88.4921,132.009 101.5,121.5 Z M 203.5,134.5 C 204.405,143.057 202.905,151.39 199,159.5C 195.5,156.667 192,153.833 188.5,151C 194.076,145.929 199.076,140.429 203.5,134.5 Z M 159.5,145.5 C 163.469,147.151 167.135,149.318 170.5,152C 168.007,154.08 165.341,155.914 162.5,157.5C 160.741,153.707 159.741,149.707 159.5,145.5 Z M 179.5,158.5 C 184.602,161.755 189.602,165.255 194.5,169C 186.453,182.381 175.286,192.214 161,198.5C 162.03,188.924 162.697,179.257 163,169.5C 168.677,165.97 174.177,162.304 179.5,158.5 Z M 150.5,174.5 C 151.805,176.397 152.471,178.731 152.5,181.5C 152.041,188.588 151.041,195.588 149.5,202.5C 123.108,207.739 100.442,200.906 81.5,182C 100.622,184.438 119.622,183.438 138.5,179C 142.715,177.766 146.715,176.266 150.5,174.5 Z"/>
    </g>
</svg>
